<?xml version="1.0" encoding="utf-8"?>
<!-- Generator: Adobe Illustrator 21.1.0, SVG Export Plug-In . SVG Version: 6.00 Build 0)  -->
<svg version="1.1" id="Calque_1" xmlns="http://www.w3.org/2000/svg" xmlns:xlink="http://www.w3.org/1999/xlink" x="0px" y="0px"
	 viewBox="0 0 12.7 12.7" style="enable-background:new 0 0 12.7 12.7;" xml:space="preserve">
<style type="text/css">
	.st0{fill:#74D4FF;}
	.st1{fill:#FFFFFF;}
</style>
<g>
	<polygon class="st0" points="6.3,11.7 1,6.3 2,1 10.9,1 11.7,6.3 	"/>
	<path class="st1" d="M10.9,1l0.8,5.3l-5.3,5.3L1,6.3L2,1H10.9 M10.9,0H2C1.5,0,1.1,0.3,1,0.8L0,6.2C0,6.5,0.1,6.8,0.3,7l5.3,5.3
		c0.2,0.2,0.5,0.3,0.7,0.3s0.5-0.1,0.7-0.3L12.4,7c0.2-0.2,0.3-0.5,0.3-0.9l-0.8-5.3C11.8,0.4,11.4,0,10.9,0L10.9,0z"/>
</g>
</svg>
