<?xml version="1.0" encoding="utf-8"?>
<!-- Generator: Adobe Illustrator 21.1.0, SVG Export Plug-In . SVG Version: 6.00 Build 0)  -->
<svg version="1.1" id="Calque_1" xmlns="http://www.w3.org/2000/svg" xmlns:xlink="http://www.w3.org/1999/xlink" x="0px" y="0px"
	 viewBox="0 0 19.1 55" style="enable-background:new 0 0 19.1 55;" xml:space="preserve">
<style type="text/css">
	.st0{fill:#DBCEAE;}
	.st1{opacity:0.2;}
	.st2{fill:#FFD051;}
	.st3{fill:#432E33;}
	.st4{fill:#FFDB49;}
	.st5{fill:#C8C8C8;}
</style>
<g>
	<g>
		<rect x="5.2" y="39.8" class="st0" width="5.8" height="15.3"/>
		<rect x="5.2" y="39.8" class="st1" width="5.8" height="15.3"/>
		<rect x="5.2" y="52.6" class="st2" width="5.8" height="2.4"/>
		<rect x="5.2" y="52.6" class="st1" width="5.8" height="2.4"/>
	</g>
	<g>
		<rect x="8.5" y="39.8" class="st0" width="5.8" height="15.3"/>
		<rect x="8.5" y="52.6" class="st2" width="5.8" height="2.4"/>
	</g>
	<rect y="4.5" class="st3" width="19.1" height="19.1"/>
	<polygon class="st4" points="6.7,11.7 9.6,23.6 0,23.6 0,4.5 19.1,4.5 	"/>
	<polygon class="st4" points="0,4.5 19.1,0 19.1,9.6 11.7,7.8 	"/>
	<polygon class="st5" points="19.1,23.6 9.6,23.6 19.1,14.1 	"/>
	<rect y="23.6" class="st4" width="19.1" height="24.6"/>
	<rect x="6.7" y="26.4" class="st3" width="5.8" height="17.2"/>
</g>
</svg>
