<?xml version="1.0" encoding="utf-8"?>
<!-- Generator: Adobe Illustrator 21.1.0, SVG Export Plug-In . SVG Version: 6.00 Build 0)  -->
<svg version="1.1" id="Calque_1" xmlns="http://www.w3.org/2000/svg" xmlns:xlink="http://www.w3.org/1999/xlink" x="0px" y="0px"
	 viewBox="0 0 23.6 56.6" style="enable-background:new 0 0 23.6 56.6;" xml:space="preserve">
<style type="text/css">
	.st0{fill:#F5D4AB;}
	.st1{opacity:0.2;}
	.st2{fill:#951B4D;}
	.st3{fill:#003B77;}
	.st4{fill:#91683A;}
	.st5{fill:#C8C8C8;}
</style>
<g>
	<g>
		<rect x="9.7" y="41.3" class="st0" width="5.8" height="15.3"/>
		<rect x="9.7" y="41.3" class="st1" width="5.8" height="15.3"/>
		<rect x="9.7" y="54.2" class="st2" width="5.8" height="2.4"/>
		<rect x="9.7" y="54.2" class="st1" width="5.8" height="2.4"/>
	</g>
	<g>
		<rect x="13" y="41.3" class="st0" width="5.8" height="15.3"/>
		<rect x="13" y="54.2" class="st2" width="5.8" height="2.4"/>
	</g>
	<g>
		<rect x="4.5" y="25.2" class="st3" width="19.1" height="24.6"/>
		<rect x="4.5" y="25.2" class="st2" width="19.1" height="14.8"/>
	</g>
	<rect x="11.2" y="27.9" class="st0" width="5.8" height="17.2"/>
	<g>
		<rect x="4.5" y="6" class="st0" width="19.1" height="19.1"/>
		<polygon class="st4" points="11.2,13.3 4.5,34.1 0,6 23.6,6 		"/>
		<polygon class="st4" points="0,6 8.6,0 23.6,1.6 23.6,11.1 16.2,9.4 		"/>
		<polygon class="st5" points="23.6,25.2 14.1,25.2 23.6,15.6 		"/>
	</g>
</g>
</svg>
