<?xml version="1.0" encoding="utf-8"?>
<!-- Generator: Adobe Illustrator 21.1.0, SVG Export Plug-In . SVG Version: 6.00 Build 0)  -->
<svg version="1.1" id="Calque_1" xmlns="http://www.w3.org/2000/svg" xmlns:xlink="http://www.w3.org/1999/xlink" x="0px" y="0px"
	 viewBox="0 0 34.4 62.4" style="enable-background:new 0 0 34.4 62.4;" xml:space="preserve">
<style type="text/css">
	.st0{fill:#F5D4AB;}
	.st1{opacity:0.2;}
	.st2{fill:#74AEFF;}
	.st3{fill:#74D4FF;}
	.st4{fill:#8D9597;}
	.st5{fill:#1E1E1E;}
</style>
<g>
	<g>
		<rect x="9.7" y="47.1" class="st0" width="5.8" height="15.3"/>
		<rect x="9.7" y="47.1" class="st1" width="5.8" height="15.3"/>
		<rect x="9.7" y="60" class="st2" width="5.8" height="2.4"/>
		<rect x="9.7" y="60" class="st1" width="5.8" height="2.4"/>
	</g>
	<g>
		<rect x="13" y="47.1" class="st0" width="5.8" height="15.3"/>
		<rect x="13" y="60" class="st2" width="5.8" height="2.4"/>
	</g>
	<rect x="4.5" y="11.8" class="st0" width="19.1" height="19.1"/>
	<rect x="4.5" y="31" class="st2" width="19.1" height="24.6"/>
	<rect x="4.5" y="31" class="st3" width="19.1" height="14.8"/>
	<rect x="7.2" y="48.4" class="st4" width="27.2" height="2.5"/>
	<rect x="11.2" y="33.7" class="st0" width="5.8" height="17.2"/>
	<polygon class="st5" points="24.6,16.8 4.5,28.7 0,20.8 23.6,11.8 	"/>
	<polygon class="st5" points="0,20.8 6.4,8 23.6,7.4 23.6,12.6 	"/>
	<rect x="4.5" class="st3" width="19.1" height="7.4"/>
	<rect x="4.5" y="7.4" class="st3" width="24" height="4.4"/>
</g>
</svg>
